<mxfile host="app.diagrams.net" modified="2023-03-21T23:35:26.663Z" agent="5.0 (Windows NT 10.0; Win64; x64) AppleWebKit/537.36 (KHTML, like Gecko) Chrome/111.0.0.0 Safari/537.36" etag="c8GxFQ7zGkELFfp4OEgk" version="21.0.10" type="github">
  <diagram name="Página-1" id="WoJ5DIr9EAFYgeNPr6eH">
    <mxGraphModel dx="2261" dy="1975" grid="1" gridSize="10" guides="1" tooltips="1" connect="1" arrows="1" fold="1" page="1" pageScale="1" pageWidth="827" pageHeight="1169" math="0" shadow="0">
      <root>
        <mxCell id="0" />
        <mxCell id="1" parent="0" />
        <mxCell id="E2MlaL8Nd7BN-q6bAsEs-5" style="rounded=0;orthogonalLoop=1;jettySize=auto;html=1;exitX=0.5;exitY=0.5;exitDx=0;exitDy=0;exitPerimeter=0;entryX=0;entryY=0.5;entryDx=0;entryDy=0;strokeColor=default;endArrow=none;endFill=0;" edge="1" parent="1" source="E2MlaL8Nd7BN-q6bAsEs-1" target="E2MlaL8Nd7BN-q6bAsEs-4">
          <mxGeometry relative="1" as="geometry" />
        </mxCell>
        <mxCell id="E2MlaL8Nd7BN-q6bAsEs-7" style="rounded=0;orthogonalLoop=1;jettySize=auto;html=1;exitX=0.5;exitY=0.5;exitDx=0;exitDy=0;exitPerimeter=0;entryX=0;entryY=0.5;entryDx=0;entryDy=0;endArrow=none;endFill=0;" edge="1" parent="1" source="E2MlaL8Nd7BN-q6bAsEs-1" target="E2MlaL8Nd7BN-q6bAsEs-6">
          <mxGeometry relative="1" as="geometry" />
        </mxCell>
        <mxCell id="E2MlaL8Nd7BN-q6bAsEs-9" style="rounded=0;orthogonalLoop=1;jettySize=auto;html=1;exitX=0.5;exitY=0.5;exitDx=0;exitDy=0;exitPerimeter=0;entryX=0;entryY=0.5;entryDx=0;entryDy=0;endArrow=none;endFill=0;" edge="1" parent="1" source="E2MlaL8Nd7BN-q6bAsEs-1" target="E2MlaL8Nd7BN-q6bAsEs-8">
          <mxGeometry relative="1" as="geometry" />
        </mxCell>
        <mxCell id="E2MlaL8Nd7BN-q6bAsEs-1" value="Cliente&lt;br&gt;" style="shape=umlActor;html=1;verticalLabelPosition=bottom;verticalAlign=top;align=center;rounded=0;" vertex="1" parent="1">
          <mxGeometry x="-770" y="250" width="30" height="60" as="geometry" />
        </mxCell>
        <mxCell id="E2MlaL8Nd7BN-q6bAsEs-14" style="rounded=0;orthogonalLoop=1;jettySize=auto;html=1;exitX=0.5;exitY=0.5;exitDx=0;exitDy=0;exitPerimeter=0;entryX=1;entryY=0.5;entryDx=0;entryDy=0;endArrow=none;endFill=0;" edge="1" parent="1" source="E2MlaL8Nd7BN-q6bAsEs-2" target="E2MlaL8Nd7BN-q6bAsEs-6">
          <mxGeometry relative="1" as="geometry" />
        </mxCell>
        <mxCell id="E2MlaL8Nd7BN-q6bAsEs-15" style="rounded=0;orthogonalLoop=1;jettySize=auto;html=1;exitX=0.5;exitY=0.5;exitDx=0;exitDy=0;exitPerimeter=0;entryX=1;entryY=0.5;entryDx=0;entryDy=0;endArrow=none;endFill=0;" edge="1" parent="1" source="E2MlaL8Nd7BN-q6bAsEs-2" target="E2MlaL8Nd7BN-q6bAsEs-8">
          <mxGeometry relative="1" as="geometry" />
        </mxCell>
        <mxCell id="E2MlaL8Nd7BN-q6bAsEs-25" style="rounded=0;orthogonalLoop=1;jettySize=auto;html=1;exitX=0.5;exitY=0.5;exitDx=0;exitDy=0;exitPerimeter=0;entryX=1;entryY=0.5;entryDx=0;entryDy=0;endArrow=none;endFill=0;" edge="1" parent="1" source="E2MlaL8Nd7BN-q6bAsEs-2" target="E2MlaL8Nd7BN-q6bAsEs-24">
          <mxGeometry relative="1" as="geometry" />
        </mxCell>
        <mxCell id="E2MlaL8Nd7BN-q6bAsEs-2" value="Caixa eletrônico" style="shape=umlActor;html=1;verticalLabelPosition=bottom;verticalAlign=top;align=center;rounded=0;" vertex="1" parent="1">
          <mxGeometry x="-230" y="280" width="30" height="60" as="geometry" />
        </mxCell>
        <mxCell id="E2MlaL8Nd7BN-q6bAsEs-11" style="rounded=0;orthogonalLoop=1;jettySize=auto;html=1;exitX=0.5;exitY=0.5;exitDx=0;exitDy=0;exitPerimeter=0;entryX=1;entryY=0.5;entryDx=0;entryDy=0;endArrow=none;endFill=0;" edge="1" parent="1" source="E2MlaL8Nd7BN-q6bAsEs-3" target="E2MlaL8Nd7BN-q6bAsEs-4">
          <mxGeometry relative="1" as="geometry" />
        </mxCell>
        <mxCell id="E2MlaL8Nd7BN-q6bAsEs-13" style="rounded=0;orthogonalLoop=1;jettySize=auto;html=1;exitX=0.5;exitY=0.5;exitDx=0;exitDy=0;exitPerimeter=0;endArrow=none;endFill=0;" edge="1" parent="1" source="E2MlaL8Nd7BN-q6bAsEs-3" target="E2MlaL8Nd7BN-q6bAsEs-12">
          <mxGeometry relative="1" as="geometry" />
        </mxCell>
        <mxCell id="E2MlaL8Nd7BN-q6bAsEs-29" style="rounded=0;orthogonalLoop=1;jettySize=auto;html=1;exitX=0.5;exitY=0.5;exitDx=0;exitDy=0;exitPerimeter=0;entryX=1;entryY=0.5;entryDx=0;entryDy=0;endArrow=none;endFill=0;" edge="1" parent="1" source="E2MlaL8Nd7BN-q6bAsEs-3" target="E2MlaL8Nd7BN-q6bAsEs-28">
          <mxGeometry relative="1" as="geometry" />
        </mxCell>
        <mxCell id="E2MlaL8Nd7BN-q6bAsEs-3" value="Funcionário do banco&lt;br&gt;" style="shape=umlActor;html=1;verticalLabelPosition=bottom;verticalAlign=top;align=center;rounded=0;" vertex="1" parent="1">
          <mxGeometry x="-170" y="40" width="30" height="60" as="geometry" />
        </mxCell>
        <mxCell id="E2MlaL8Nd7BN-q6bAsEs-20" style="edgeStyle=orthogonalEdgeStyle;rounded=0;orthogonalLoop=1;jettySize=auto;html=1;exitX=0.5;exitY=0;exitDx=0;exitDy=0;entryX=0.5;entryY=1;entryDx=0;entryDy=0;" edge="1" parent="1" source="E2MlaL8Nd7BN-q6bAsEs-4" target="E2MlaL8Nd7BN-q6bAsEs-16">
          <mxGeometry relative="1" as="geometry" />
        </mxCell>
        <mxCell id="E2MlaL8Nd7BN-q6bAsEs-21" style="edgeStyle=orthogonalEdgeStyle;rounded=0;orthogonalLoop=1;jettySize=auto;html=1;exitX=0.5;exitY=0;exitDx=0;exitDy=0;entryX=0.5;entryY=1;entryDx=0;entryDy=0;" edge="1" parent="1" source="E2MlaL8Nd7BN-q6bAsEs-4" target="E2MlaL8Nd7BN-q6bAsEs-17">
          <mxGeometry relative="1" as="geometry" />
        </mxCell>
        <mxCell id="E2MlaL8Nd7BN-q6bAsEs-4" value="Abrir contas" style="ellipse;whiteSpace=wrap;html=1;rounded=0;" vertex="1" parent="1">
          <mxGeometry x="-620" y="240" width="140" height="70" as="geometry" />
        </mxCell>
        <mxCell id="E2MlaL8Nd7BN-q6bAsEs-31" style="rounded=0;orthogonalLoop=1;jettySize=auto;html=1;exitX=0.5;exitY=0;exitDx=0;exitDy=0;entryX=0.5;entryY=1;entryDx=0;entryDy=0;dashed=1;endArrow=open;endFill=0;" edge="1" parent="1" source="E2MlaL8Nd7BN-q6bAsEs-6" target="E2MlaL8Nd7BN-q6bAsEs-4">
          <mxGeometry relative="1" as="geometry" />
        </mxCell>
        <mxCell id="E2MlaL8Nd7BN-q6bAsEs-6" value="Depositar valores" style="ellipse;whiteSpace=wrap;html=1;rounded=0;" vertex="1" parent="1">
          <mxGeometry x="-620" y="350" width="140" height="70" as="geometry" />
        </mxCell>
        <mxCell id="E2MlaL8Nd7BN-q6bAsEs-8" value="Emitir saldos ou extratos" style="ellipse;whiteSpace=wrap;html=1;rounded=0;" vertex="1" parent="1">
          <mxGeometry x="-620" y="550" width="140" height="70" as="geometry" />
        </mxCell>
        <mxCell id="E2MlaL8Nd7BN-q6bAsEs-12" value="Registrar ou alterar cadastro" style="ellipse;whiteSpace=wrap;html=1;rounded=0;" vertex="1" parent="1">
          <mxGeometry x="-200" y="170" width="140" height="70" as="geometry" />
        </mxCell>
        <mxCell id="E2MlaL8Nd7BN-q6bAsEs-16" value="Conta poupança" style="ellipse;whiteSpace=wrap;html=1;rounded=0;" vertex="1" parent="1">
          <mxGeometry x="-690" y="110" width="140" height="70" as="geometry" />
        </mxCell>
        <mxCell id="E2MlaL8Nd7BN-q6bAsEs-17" value="Conta corrente" style="ellipse;whiteSpace=wrap;html=1;rounded=0;" vertex="1" parent="1">
          <mxGeometry x="-500" y="110" width="140" height="70" as="geometry" />
        </mxCell>
        <mxCell id="E2MlaL8Nd7BN-q6bAsEs-23" style="edgeStyle=orthogonalEdgeStyle;rounded=0;orthogonalLoop=1;jettySize=auto;html=1;exitX=0.5;exitY=0;exitDx=0;exitDy=0;entryX=0.5;entryY=1;entryDx=0;entryDy=0;dashed=1;endArrow=open;endFill=0;" edge="1" parent="1" source="E2MlaL8Nd7BN-q6bAsEs-22" target="E2MlaL8Nd7BN-q6bAsEs-8">
          <mxGeometry relative="1" as="geometry" />
        </mxCell>
        <mxCell id="E2MlaL8Nd7BN-q6bAsEs-22" value="Informar dados" style="ellipse;whiteSpace=wrap;html=1;" vertex="1" parent="1">
          <mxGeometry x="-620" y="680" width="140" height="70" as="geometry" />
        </mxCell>
        <mxCell id="E2MlaL8Nd7BN-q6bAsEs-27" style="rounded=0;orthogonalLoop=1;jettySize=auto;html=1;exitX=0;exitY=0.5;exitDx=0;exitDy=0;entryX=0.5;entryY=0.5;entryDx=0;entryDy=0;entryPerimeter=0;endArrow=none;endFill=0;" edge="1" parent="1" source="E2MlaL8Nd7BN-q6bAsEs-24" target="E2MlaL8Nd7BN-q6bAsEs-1">
          <mxGeometry relative="1" as="geometry" />
        </mxCell>
        <mxCell id="E2MlaL8Nd7BN-q6bAsEs-24" value="Sacar valores&lt;br&gt;" style="ellipse;whiteSpace=wrap;html=1;" vertex="1" parent="1">
          <mxGeometry x="-620" y="450" width="140" height="70" as="geometry" />
        </mxCell>
        <mxCell id="E2MlaL8Nd7BN-q6bAsEs-26" value="&amp;lt;include&amp;gt;" style="text;html=1;strokeColor=none;fillColor=none;align=center;verticalAlign=middle;whiteSpace=wrap;rounded=0;" vertex="1" parent="1">
          <mxGeometry x="-550" y="640" width="60" height="30" as="geometry" />
        </mxCell>
        <mxCell id="E2MlaL8Nd7BN-q6bAsEs-30" style="rounded=0;orthogonalLoop=1;jettySize=auto;html=1;exitX=0;exitY=0.5;exitDx=0;exitDy=0;entryX=0.5;entryY=0.5;entryDx=0;entryDy=0;entryPerimeter=0;endArrow=none;endFill=0;" edge="1" parent="1" source="E2MlaL8Nd7BN-q6bAsEs-28" target="E2MlaL8Nd7BN-q6bAsEs-1">
          <mxGeometry relative="1" as="geometry" />
        </mxCell>
        <mxCell id="E2MlaL8Nd7BN-q6bAsEs-28" value="Encerrar contas&lt;br&gt;" style="ellipse;whiteSpace=wrap;html=1;" vertex="1" parent="1">
          <mxGeometry x="-680" y="-20" width="140" height="70" as="geometry" />
        </mxCell>
        <mxCell id="E2MlaL8Nd7BN-q6bAsEs-32" value="&amp;lt;extend&amp;gt;" style="text;html=1;strokeColor=none;fillColor=none;align=center;verticalAlign=middle;whiteSpace=wrap;rounded=0;" vertex="1" parent="1">
          <mxGeometry x="-550" y="310" width="60" height="30" as="geometry" />
        </mxCell>
      </root>
    </mxGraphModel>
  </diagram>
</mxfile>
